<?xml version="1.0" encoding="UTF-8" standalone="no"?>
<svg width="284px" height="38px" viewBox="0 0 284 38" version="1.1" xmlns="http://www.w3.org/2000/svg" xmlns:xlink="http://www.w3.org/1999/xlink">
    <!-- Generator: Sketch 39.1 (31720) - http://www.bohemiancoding.com/sketch -->
    <title>Logo 1</title>
    <desc>Created with Sketch.</desc>
    <defs></defs>
    <g id="Page-1" stroke="none" stroke-width="1" fill="none" fill-rule="evenodd">
        <g id="Logo-1">
            <path d="M23.52,37.93 L21.18,29.52 L11.44,29.52 L9.1,37.93 L0.74,37.93 L10.29,2.45 L22.29,2.45 L31.88,37.93 L23.52,37.93 Z M20.21,23.58 C18.21,16.08 17.0933333,11.84 16.86,10.86 C16.6266667,9.88 16.4466667,9.10333333 16.32,8.53 C15.8733333,10.53 14.6,15.55 12.5,23.59 L20.21,23.58 Z" id="Shape" fill="#FFFFFF"></path>
            <polygon id="Shape" fill="#FFFFFF" points="33.28 9.1 33.28 2.45 44.25 2.45 44.25 37.99 35.56 37.99 35.56 9.1"></polygon>
            <polygon id="Shape" fill="#FFFFFF" points="47.03 11.38 47.03 37.94 55.4 37.94 55.4 18.06 62.06 18.06 62.06 37.94 71.06 37.94 71.06 18 76.59 18 76.59 37.94 85.4 37.94 85.4 11.38"></polygon>
            <path d="M112.39,11.38 L114.19,13.18 L114.19,36.68 L112.87,38 L90.31,38 L87.96,35.65 L87.96,11.37 L112.39,11.38 Z M95.76,18.09 L95.76,31.59 L107.2,31.59 L107.2,18.09 L95.76,18.09 Z" id="Shape" fill="#FFFFFF"></path>
            <polygon id="Shape" fill="#FFFFFF" points="199.36 0.69 184.19 0.69 184.19 11.38 180.03 11.38 180.03 17.9 184.2 17.9 184.2 38 192.03 38 192.03 17.92 199.36 17.92 199.36 11.38 192.07 11.38 192.07 5.83 199.36 5.83"></polygon>
            <path d="M224.95,11.39 L226.4,12.84 L226.4,26.41 L225.01,27.83 L210.01,27.83 L210.01,32.39 L226.38,32.39 L226.38,38 L202.09,38 L202.09,11.39 L224.95,11.39 Z M210.02,17.17 L210.02,22.09 L221.63,22.09 L221.63,17.17 L210.02,17.17 Z" id="Shape" fill="#FFFFFF"></path>
            <polygon id="Shape" fill="#FFFFFF" points="245.09 12.69 243.78 11.39 228.81 11.39 228.81 38 236.95 38 236.95 17.38 245.09 17.38"></polygon>
            <polygon id="Shape" fill="#016A91" points="151.13 3.16 151.13 10.22 154.94 10.22"></polygon>
            <polygon id="Shape" fill="#35C2F2" points="151.13 3.16 154.94 10.22 154.94 6.87"></polygon>
            <polygon id="Shape" fill="#CBDB2B" points="160.17 4.67 151.13 3.16 154.94 6.87"></polygon>
            <polygon id="Shape" fill="#07A54D" points="158.01 3.16 151.13 3.16 160.17 4.67"></polygon>
            <path d="M163.3,6.83 C163.3,6.83 160.89,3.12 160.87,3.12 L158.02,3.12 L163.3,6.83 Z" id="Shape" fill="#F68A21"></path>
            <polygon id="Shape" fill="#F3D40F" points="163.3 6.87 154.94 6.87 160.17 4.67"></polygon>
            <polygon id="Shape" fill="#D71F27" points="160.87 3.16 163.3 6.87 167.09 5.37"></polygon>
            <polygon id="Shape" fill="#F04E3F" points="167.09 3.16 160.87 3.16 167.09 5.37"></polygon>
            <polygon id="Shape" fill="#A71F23" points="167.09 10.23 163.3 6.87 163.3 10.23"></polygon>
            <polygon id="Shape" fill="#BC2028" points="167.09 5.37 163.3 6.87 167.09 10.23"></polygon>
            <polygon id="Shape" fill="#0374AF" points="141.6 11.39 141.6 24.01 149.73 31.6"></polygon>
            <polygon id="Shape" fill="#35C2F2" points="153.14 11.39 141.6 11.39 145.15 20.21"></polygon>
            <polygon id="Shape" fill="#05AAB4" points="149.73 15.15 163.3 11.39 153.14 11.39"></polygon>
            <polygon id="Shape" fill="#24ACE3" points="149.73 15.15 145.15 20.21 149.73 31.6"></polygon>
            <polygon id="Shape" fill="#751B54" points="141.6 24.01 141.6 37.91 146.2 37.91"></polygon>
            <polygon id="Shape" fill="#B91E8B" points="149.73 31.6 141.6 24.01 146.2 37.91"></polygon>
            <polygon id="Shape" fill="#A52871" points="156.86 37.91 149.73 31.6 146.2 37.91"></polygon>
            <polygon id="Shape" fill="#A51E22" points="164.82 37.91 149.73 31.6 156.86 37.91"></polygon>
            <polygon id="Shape" fill="#D62027" points="167.09 31.6 164.82 37.91 149.73 31.6"></polygon>
            <polygon id="Shape" fill="#F04E3F" points="170.32 34.1 164.82 37.91 167.09 31.6"></polygon>
            <polygon id="Shape" fill="#F26A23" points="169.19 30.42 167.09 31.6 170.32 34.1"></polygon>
            <polygon id="Shape" fill="#F68A21" points="171.53 38 169.19 30.42 169.66 30.11 177.79 38"></polygon>
            <polygon id="Shape" fill="#FBAF40" points="177.79 29.31 172.57 32.94 177.79 38"></polygon>
            <polygon id="Shape" fill="#CBDB2B" points="169.66 21.44 169.66 30.14 172.57 32.94"></polygon>
            <polygon id="Shape" fill="#FCEE23" points="174.49 24.88 172.57 32.94 169.66 21.44"></polygon>
            <polygon id="Shape" fill="#7EC242" points="177.79 29.31 174.49 24.88 177.79 11.39"></polygon>
            <polygon id="Shape" fill="#CBDB2B" points="177.34 13.23 174.49 24.88 169.66 21.44"></polygon>
            <polygon id="Shape" fill="#EFD716" points="177.79 29.31 172.57 32.94 174.49 24.88"></polygon>
            <polygon id="Shape" fill="#90C640" points="169.66 15.15 177.34 13.23 169.66 21.44"></polygon>
            <polygon id="Shape" fill="#47B649" points="177.79 11.39 163.3 11.39 177.34 13.23"></polygon>
            <polygon id="Shape" fill="#00A64F" points="177.36 13.24 163.3 11.39 169.66 15.15"></polygon>
            <polygon id="Shape" fill="#00A76E" points="149.73 15.15 163.3 11.39 169.66 15.15"></polygon>
            <path d="M138.59,29.83 C138.710705,32.2175647 137.572475,34.494025 135.59,35.83 C133.59,37.2033333 130.59,37.89 126.59,37.89 C124.84238,37.9113307 123.096106,37.7842072 121.37,37.51 C120.003608,37.2715564 118.663872,36.8997796 117.37,36.4 L117.37,36.4 L117.37,30.63 L117.37,30.63 C118.924818,31.2815514 120.534489,31.7935674 122.18,32.16 C123.721876,32.5421454 125.301755,32.7501125 126.89,32.78 C129.67,32.78 131.06,32.0466667 131.06,30.58 C131.0788,30.0748625 130.878259,29.5862701 130.51,29.24 C129.930513,28.7635349 129.287718,28.3697805 128.6,28.07 C127.693333,27.6366667 126.486667,27.13 124.98,26.55 C123.312314,25.9679804 121.715563,25.1997955 120.22,24.26 C119.292148,23.6513108 118.532195,22.8191445 118.01,21.84 C117.520124,20.7930109 117.283741,19.6453572 117.32,18.49 C117.25418,16.3334954 118.364801,14.3113991 120.22,13.21 C122.153333,11.9633333 124.893333,11.34 128.44,11.34 C131.82,11.34 132.93,11.27 136.13,12.62 L136.13,12.62 L136,18.4 L136,18.4 C134.666667,17.8933333 133.446667,17.47 132.34,17.13 C131.074916,16.7453159 129.762127,16.5399822 128.44,16.52 C126.1,16.52 124.93,17.0766667 124.93,18.19 C124.983783,18.8863898 125.396969,19.5042729 126.02,19.82 C127.554529,20.6193176 129.153482,21.2883358 130.8,21.82 C132.488941,22.3879831 134.10639,23.1497282 135.62,24.09 C137.579341,25.305687 138.727217,27.4866514 138.62,29.79 L138.59,29.83 Z" id="Shape" fill="#FFFFFF"></path>
            <path d="M129.83,11.38 L117.74,11.38 C117.496995,11.38 117.3,11.5769947 117.3,11.82 L117.3,18.41 L123.4,25.61 L121.8,16.13 C121.8,16.13 128.93,14.38 129.09,14.38 C129.414871,13.4009283 129.662299,12.3978405 129.83,11.38 L129.83,11.38 Z" id="Shape" fill="#FFFFFF"></path>
            <path d="M244.99,35.44 C245.409943,35.4378472 245.772892,35.7327227 245.856777,36.1442083 C245.940661,36.5556938 245.722105,36.9691141 245.334831,37.1315195 C244.947556,37.2939249 244.499492,37.1600554 244.264783,36.8118184 C244.030075,36.4635815 244.074132,35.9980259 244.37,35.7 C244.53146,35.5308014 244.75615,35.4365766 244.99,35.44 L244.99,35.44 Z" id="Shape" fill="#FFFFFF"></path>
            <path d="M257.52,29.39 C257.078998,28.901884 256.549707,28.5015232 255.96,28.21 C255.36077,27.9243406 254.703769,27.7806215 254.04,27.79 C253.481767,27.7848528 252.92906,27.900853 252.42,28.13 C251.932089,28.3505362 251.493421,28.6667853 251.13,29.06 C250.765378,29.4571549 250.477215,29.9182158 250.28,30.42 C250.074174,30.9282691 249.968896,31.4716383 249.97,32.02 C249.968133,33.1298326 250.381979,34.2001241 251.13,35.02 C251.492678,35.4122495 251.927185,35.7313406 252.41,35.96 C252.913317,36.1968491 253.463778,36.3165146 254.02,36.31 C254.715452,36.3121751 255.401288,36.1475743 256.02,35.83 C256.641027,35.5129624 257.19195,35.0742644 257.64,34.54 L257.64,35.83 C257.147981,36.261024 256.58226,36.5997791 255.97,36.83 C255.356996,37.0638426 254.706087,37.182498 254.05,37.18 C252.688035,37.1907218 251.380639,36.6453713 250.43,35.67 C248.992695,34.1531594 248.574353,31.9363395 249.36,30 C249.61105,29.3918562 249.977844,28.83827 250.44,28.37 C250.90312,27.9037344 251.453615,27.5333397 252.06,27.28 C252.693724,27.01705 253.373912,26.8844134 254.06,26.89 C254.682508,26.8866612 255.301142,26.9880765 255.89,27.19 C256.477818,27.3969301 257.023291,27.7086288 257.5,28.11 L257.52,29.39 Z" id="Shape" fill="#FFFFFF"></path>
            <path d="M264.3,26.89 C264.98569,26.8886498 265.665054,27.0211257 266.3,27.28 C266.911347,27.5305904 267.468295,27.8973611 267.94,28.36 C268.410949,28.8251629 268.784845,29.3792095 269.04,29.99 C269.582228,31.2959538 269.582228,32.7640462 269.04,34.07 C268.784845,34.6807905 268.410949,35.2348371 267.94,35.7 C267.467977,36.1622445 266.91111,36.5289616 266.3,36.78 C265.665817,37.042547 264.986379,37.1784345 264.3,37.18 C263.612028,37.1843813 262.930756,37.0447204 262.3,36.77 C261.693558,36.5077744 261.143482,36.1308698 260.68,35.66 C260.216129,35.1890055 259.843211,34.6364089 259.58,34.03 C259.303849,33.3996977 259.164125,32.7181176 259.17,32.03 C259.164686,31.3439368 259.297312,30.6638029 259.56,30.03 C259.815346,29.418783 260.185338,28.862098 260.65,28.39 C261.115942,27.917476 261.669625,27.5404284 262.28,27.28 C262.91902,27.0113827 263.606912,26.8785718 264.3,26.89 L264.3,26.89 Z M264.24,27.79 C263.681892,27.7861103 263.129451,27.9020548 262.62,28.13 C262.128511,28.3493808 261.686351,28.6656951 261.32,29.06 C260.571979,29.8798759 260.158133,30.9501674 260.16,32.06 C260.150868,33.173035 260.569727,34.2470329 261.33,35.06 C261.698638,35.4516973 262.14024,35.7676128 262.63,35.99 C263.135494,36.2192549 263.684974,36.3352942 264.24,36.33 C264.815539,36.3342387 265.386319,36.2255187 265.92,36.01 C266.42941,35.8048267 266.892029,35.4986819 267.28,35.11 C267.66314,34.7213437 267.968602,34.2631506 268.18,33.76 C268.40284,33.2316948 268.515147,32.6633564 268.51,32.09 C268.51532,31.5069185 268.403086,30.928744 268.18,30.39 C267.970606,29.8828189 267.66498,29.4209845 267.28,29.03 C266.89479,28.642647 266.435714,28.3365964 265.93,28.13 C265.388846,27.9182157 264.810957,27.8162354 264.23,27.83 L264.24,27.79 Z" id="Shape" fill="#FFFFFF"></path>
            <path d="M272.8,28.35 L272.8,28.35 C273.018018,27.9007978 273.366552,27.5278659 273.8,27.28 C274.24462,27.0267475 274.748332,26.8956445 275.26,26.9 C275.853169,26.8838097 276.437817,27.0438918 276.94,27.36 C277.431887,27.6828336 277.815187,28.1462783 278.04,28.69 C278.277639,28.127729 278.687213,27.6551432 279.21,27.34 C279.734876,27.0351312 280.333098,26.8795244 280.94,26.89 C281.47291,26.8688499 282.003467,26.9715384 282.49,27.19 C282.869343,27.3774906 283.190748,27.6643353 283.42,28.02 C283.656704,28.3974353 283.813279,28.8195068 283.88,29.26 C283.962219,29.7624457 284.002358,30.2708772 284,30.78 L284,36.97 L283,36.97 L283,30.65 C283.002222,30.2857837 282.982185,29.9217719 282.94,29.56 C282.904483,29.2404693 282.805913,28.9311626 282.65,28.65 C282.499439,28.3845427 282.277795,28.1663618 282.01,28.02 C281.66347,27.8451502 281.277748,27.7624955 280.89,27.78 C280.067169,27.7424493 279.293431,28.1718739 278.89,28.89 C278.693633,29.2368097 278.561513,29.616232 278.5,30.01 C278.428249,30.4295595 278.391455,30.8543519 278.39,31.28 L278.39,36.96 L277.39,36.96 L277.39,30.87 C277.388521,30.4919723 277.361794,30.1144655 277.31,29.74 C277.267972,29.3906666 277.162939,29.0518509 277,28.74 C276.846623,28.4491568 276.618889,28.2041697 276.34,28.03 C275.989395,27.8343927 275.591024,27.7408621 275.19,27.76 C274.748233,27.7396061 274.312164,27.8662067 273.95,28.12 C273.632588,28.3623365 273.378668,28.6780214 273.21,29.04 C273.028317,29.4258638 272.906905,29.8373163 272.85,30.26 C272.786231,30.677028 272.75281,31.098134 272.75,31.52 L272.75,36.94 L271.75,36.94 L271.75,27.07 L272.75,27.07 L272.8,28.35 Z" id="Shape" fill="#FFFFFF"></path>
        </g>
    </g>
</svg>